<svg width="232" height="981" viewBox="0 0 232 981" fill="none" xmlns="http://www.w3.org/2000/svg">
<rect width="106" height="986" fill="#F1EDFD"/>
<path fill-rule="evenodd" clip-rule="evenodd" d="M57.0411 57.9714C59.2389 57.7492 62.3415 56.9514 64.9286 55.2504C67.6402 53.4676 69.7521 50.7254 69.7521 46.5721C69.7521 42.2899 68.2504 39.724 66.4731 38.2152C64.663 36.6785 62.4828 36.1675 61.0615 36.1675H37.0479C36.2712 36.1675 35.8846 37.1065 36.4369 37.6512L57.0411 57.9714Z" fill="#EA0022"/>
<path d="M64.9286 55.2504C62.3415 56.9514 59.2389 57.7492 57.0411 57.9714L36.4369 37.6512C35.8846 37.1065 36.2712 36.1675 37.0479 36.1675H61.0615C62.4828 36.1675 64.663 36.6785 66.4731 38.2152C68.2504 39.724 69.7521 42.2899 69.7521 46.5721C69.7521 50.7254 67.6402 53.4676 64.9286 55.2504Z" fill="#EA0022"/>
<path d="M64.9294 56.1178C62.3423 57.8187 59.2397 58.6166 57.0419 58.8388L36.8273 38.028L53.3382 51.1512C57.0419 54.0662 60.7779 53.8072 64.2986 52.1542C66.1547 51.2828 68.302 49.6488 69.9397 45.2553C70.1436 46.7044 70.9002 52.0768 64.9294 56.1178Z" fill="#9B0003"/>
<path fill-rule="evenodd" clip-rule="evenodd" d="M53.2421 71.7163L39.066 58.2309C38.5128 57.7046 37.5972 58.0958 37.5972 58.8584V70.8493C37.5972 71.3281 37.9863 71.7163 38.4663 71.7163H53.2421Z" fill="#BDBDBD"/>
<path d="M39.066 58.2309L53.2421 71.7163H38.4663C37.9863 71.7163 37.5972 71.3281 37.5972 70.8493V58.8584C37.5972 58.0958 38.5128 57.7046 39.066 58.2309Z" fill="#BDBDBD"/>
<path opacity="0.58" d="M38.869 67.6773L38.8691 65.3136C38.9207 67.3562 39.3121 68.7355 40.4005 69.3377C42.3627 70.3818 41.6214 70.5123 39.4629 70.3818C38.81 70.3423 38.8957 68.7348 38.869 67.6773Z" fill="white"/>
<path d="M45.9948 64.8533C50.5408 70.7948 45.3508 72.2801 42.1876 72.2801H53.9502L45.9948 64.8533Z" fill="#797979"/>
<path opacity="0.58" d="M61.2674 37.1858H54.8776C58.7907 37.1858 62.2904 37.9061 63.4957 39.9511C64.7105 42.648 67.6044 42.4887 66.4305 40.2765C65.2566 38.0642 63.2933 37.1858 61.2674 37.1858Z" fill="white"/>
<path fill-rule="evenodd" clip-rule="evenodd" d="M35.2144 38.8846C33.5574 37.2504 34.7173 34.4336 37.0473 34.4336H61.0609C62.8262 34.4336 65.4258 35.0498 67.5989 36.8946C69.8048 38.7673 71.4896 41.8372 71.4896 46.5723C71.4896 51.4363 68.9665 54.6721 65.8844 56.6985C63.5259 58.2492 60.8211 59.1103 58.5942 59.5039L68.2227 68.9997C69.8798 70.634 68.7199 73.4508 66.3899 73.4508H38.4654C37.0255 73.4508 35.8583 72.2862 35.8583 70.8496V58.8587C35.8583 56.5711 38.6051 55.3975 40.2646 56.9762L55.76 71.7167H66.3899C67.1665 71.7167 67.5532 70.7777 67.0008 70.233L35.2144 38.8846ZM64.928 55.2505C62.3409 56.9515 59.2383 57.7493 57.0405 57.9716L36.4363 37.6514C35.884 37.1066 36.2706 36.1677 37.0473 36.1677H61.0609C62.4822 36.1677 64.6624 36.6787 66.4725 38.2153C68.2498 39.7241 69.7515 42.2901 69.7515 46.5723C69.7515 50.7255 67.6397 53.4677 64.928 55.2505ZM53.2412 71.7167L39.0651 58.2312C38.512 57.705 37.5964 58.0962 37.5964 58.8587V70.8496C37.5964 71.3285 37.9855 71.7167 38.4654 71.7167H53.2412Z" fill="#4A4949"/>
<path fill-rule="evenodd" clip-rule="evenodd" d="M34.9095 39.1929C32.9762 37.2863 34.3294 34 37.0478 34H61.0615C62.9127 34 65.6172 34.6425 67.881 36.5644C70.1941 38.528 71.9247 41.7239 71.9247 46.5722C71.9247 51.6139 69.2988 54.9731 66.1241 57.0604C63.9889 58.4642 61.5837 59.3143 59.4833 59.7706L68.5287 68.6913C70.462 70.598 69.1087 73.8842 66.3904 73.8842H38.466C36.7861 73.8842 35.4243 72.5256 35.4243 70.8496V58.8586C35.4243 56.1897 38.6289 54.8206 40.565 56.6623L55.9345 71.2831H66.3904C66.7787 71.2831 66.972 70.8136 66.6959 70.5412L34.9095 39.1929ZM52.1564 71.2831L38.7658 58.5449C38.4892 58.2818 38.0314 58.4774 38.0314 58.8586V70.8496C38.0314 71.089 38.226 71.2831 38.466 71.2831H52.1564ZM57.1996 57.5184C59.3296 57.274 62.2517 56.4912 64.6895 54.8885C67.3085 53.1666 69.3175 50.5478 69.3175 46.5722C69.3175 42.4032 67.8616 39.9633 66.1915 38.5454C64.4721 37.0858 62.3967 36.6011 61.0615 36.6011H37.0478C36.6595 36.6011 36.4661 37.0706 36.7423 37.343L57.1996 57.5184Z" fill="#4A4949"/>
<rect x="15" y="129" width="68" height="69.997" rx="10" fill="#EAE4FC"/>
<path d="M47.5921 153.495C48.4147 152.835 49.5853 152.835 50.4079 153.495L58.1579 159.712C58.6902 160.139 59 160.784 59 161.467V172.747C59 173.99 57.9926 174.997 56.75 174.997H54.25C53.0074 174.997 52 173.99 52 172.747V166.247C52 165.833 51.6642 165.497 51.25 165.497H46.75C46.3358 165.497 46 165.833 46 166.247V172.747C46 173.99 44.9926 174.997 43.75 174.997H41.25C40.0074 174.997 39 173.99 39 172.747V161.467C39 160.784 39.3098 160.139 39.8421 159.712L47.5921 153.495Z" fill="#5E3EBA"/>
<path d="M42 269.747C42 267.676 43.6789 265.997 45.75 265.997H60.25C62.3211 265.997 64 267.676 64 269.747V284.247C64 286.318 62.3211 287.997 60.25 287.997H45.75C43.6789 287.997 42 286.318 42 284.247V269.747ZM45.75 267.497C44.5074 267.497 43.5 268.504 43.5 269.747V284.247C43.5 285.49 44.5074 286.497 45.75 286.497H55V267.497H45.75ZM60.25 286.497C61.4926 286.497 62.5 285.49 62.5 284.247V281.497H56.5V286.497H60.25ZM62.5 279.997V273.997H56.5V279.997H62.5ZM62.5 272.497V269.747C62.5 268.504 61.4926 267.497 60.25 267.497H56.5V272.497H62.5ZM46.75 270.497C46.0596 270.497 45.5 271.057 45.5 271.747V275.247C45.5 275.937 46.0596 276.497 46.75 276.497H51.75C52.4404 276.497 53 275.937 53 275.247V271.747C53 271.057 52.4404 270.497 51.75 270.497H46.75ZM47 274.997V271.997H51.5V274.997H47ZM45.5 279.247C45.5 278.833 45.8358 278.497 46.25 278.497H52.25C52.6642 278.497 53 278.833 53 279.247C53 279.661 52.6642 279.997 52.25 279.997H46.25C45.8358 279.997 45.5 279.661 45.5 279.247ZM46.25 281.997C45.8358 281.997 45.5 282.333 45.5 282.747C45.5 283.161 45.8358 283.497 46.25 283.497H52.25C52.6642 283.497 53 283.161 53 282.747C53 282.333 52.6642 281.997 52.25 281.997H46.25Z" fill="#4D4959"/>
<path d="M53 782.497C50.5147 782.497 48.5 784.512 48.5 786.997C48.5 789.482 50.5147 791.497 53 791.497C54.3488 791.497 55.559 790.904 56.3838 789.964C57.0787 789.172 57.5 788.134 57.5 786.997C57.5 786.537 57.431 786.093 57.3028 785.675C56.7382 783.835 55.0253 782.497 53 782.497ZM50 786.997C50 785.34 51.3431 783.997 53 783.997C54.6569 783.997 56 785.34 56 786.997C56 788.654 54.6569 789.997 53 789.997C51.3431 789.997 50 788.654 50 786.997ZM60.7093 795.392L58.9818 794.633C58.4876 794.417 57.9071 794.448 57.44 794.719C56.9729 794.989 56.675 795.466 56.6157 796.004L56.408 797.883C56.3651 798.27 56.084 798.589 55.7055 798.679C53.9263 799.103 52.0725 799.103 50.2933 798.679C49.9148 798.589 49.6336 798.27 49.5908 797.883L49.3834 796.006C49.3225 795.47 49.0112 794.995 48.5445 794.725C48.0778 794.456 47.5112 794.424 47.0186 794.639L45.2907 795.398C44.9328 795.555 44.5149 795.469 44.2481 795.183C43.0047 793.851 42.0792 792.253 41.5412 790.511C41.4253 790.135 41.5592 789.728 41.8749 789.495L43.4022 788.367C43.8372 788.047 44.0941 787.539 44.0941 786.998C44.0941 786.457 43.8372 785.948 43.4016 785.628L41.8753 784.502C41.5591 784.269 41.4251 783.861 41.5414 783.485C42.0804 781.744 43.0064 780.149 44.2497 778.818C44.5168 778.532 44.9349 778.446 45.2928 778.604L47.013 779.361C47.5079 779.579 48.077 779.546 48.5462 779.271C49.0133 779 49.3244 778.522 49.3844 777.985L49.5933 776.107C49.637 775.715 49.9245 775.394 50.3089 775.308C51.19 775.112 52.0891 775.008 53.0131 774.997C53.9147 775.007 54.8128 775.112 55.6928 775.309C56.077 775.394 56.3643 775.715 56.4079 776.107L56.617 777.986C56.7116 778.849 57.4387 779.503 58.3055 779.504C58.5385 779.504 58.769 779.455 58.9843 779.36L60.7048 778.603C61.0626 778.445 61.4807 778.531 61.7478 778.817C62.9912 780.147 63.9172 781.743 64.4561 783.484C64.5723 783.859 64.4386 784.267 64.1228 784.5L62.5978 785.627C62.1628 785.947 61.9 786.456 61.9 786.996C61.9 787.537 62.1628 788.046 62.5988 788.367L64.1251 789.493C64.441 789.727 64.5748 790.135 64.4586 790.51C63.9198 792.251 62.9944 793.846 61.7517 795.177C61.4849 795.463 61.0671 795.549 60.7093 795.392ZM55.263 795.194C55.4982 794.465 55.9889 793.826 56.6884 793.421C57.5702 792.91 58.6536 792.852 59.5841 793.26L60.9281 793.85C61.791 792.851 62.4593 791.698 62.8981 790.452L61.7095 789.575L61.7086 789.574C60.898 788.977 60.4 788.025 60.4 786.996C60.4 785.969 60.8974 785.017 61.7073 784.42L61.7085 784.419L62.8957 783.542C62.4567 782.296 61.7881 781.143 60.9248 780.145L59.5922 780.731L59.5899 780.732C59.1844 780.912 58.7472 781.004 58.3039 781.004C56.6715 781.002 55.3046 779.771 55.1261 778.152L55.1259 778.15L54.9635 776.69C54.3202 776.57 53.6677 776.506 53.013 776.497C52.3389 776.506 51.6821 776.571 51.0377 776.69L50.8751 778.152C50.7625 779.16 50.1793 780.056 49.3019 780.567C48.4194 781.083 47.3445 781.145 46.4087 780.734L45.0727 780.146C44.2095 781.145 43.5409 782.297 43.102 783.543L44.2918 784.42C45.1112 785.024 45.5941 785.981 45.5941 786.998C45.5941 788.014 45.1114 788.971 44.2924 789.575L43.1016 790.454C43.54 791.701 44.2085 792.856 45.0721 793.856L46.4174 793.265C47.3474 792.858 48.4157 792.919 49.2947 793.426C50.174 793.934 50.7593 794.829 50.8738 795.837L50.8744 795.842L51.0362 797.306C52.3326 797.561 53.6662 797.561 54.9626 797.306L55.1247 795.839C55.1491 795.619 55.1955 795.403 55.263 795.194Z" fill="#4D4959"/>
<path d="M51.9267 903.685L54.9483 900.664H43.6667V898.33H54.9483L51.9267 895.309L53.5833 893.664L59.4167 899.497L53.5833 905.33L51.9267 903.685ZM57.6667 888.997C58.2855 888.997 58.879 889.243 59.3166 889.68C59.7542 890.118 60 890.712 60 891.33V896.779L57.6667 894.445V891.33H41.3333V907.664H57.6667V904.549L60 902.215V907.664C60 908.283 59.7542 908.876 59.3166 909.314C58.879 909.751 58.2855 909.997 57.6667 909.997H41.3333C40.7145 909.997 40.121 909.751 39.6834 909.314C39.2458 908.876 39 908.283 39 907.664V891.33C39 890.035 40.0383 888.997 41.3333 888.997H57.6667Z" fill="#4D4959"/>
</svg>
