<svg version="1.0" xmlns="http://www.w3.org/2000/svg"
 width="78.000000pt" height="80.000000pt" viewBox="0 0 78.000000 80.000000"
 preserveAspectRatio="xMidYMid meet">

<g transform="translate(0.000000,80.000000) scale(0.100000,-0.100000)"
fill="#000000" stroke="none">
<path d="M62 747 c-12 -13 -22 -30 -22 -38 0 -8 140 -151 310 -318 171 -166
307 -307 304 -312 -3 -5 -52 -9 -108 -9 l-103 0 -65 63 c-220 213 -225 217
-257 217 -45 0 -53 -30 -49 -176 2 -96 6 -124 20 -137 15 -15 48 -17 293 -17
301 0 305 1 305 57 0 21 -19 47 -86 114 -83 83 -96 109 -55 109 24 0 134 72
155 101 9 13 24 48 32 77 13 44 14 62 4 105 -15 63 -44 119 -72 136 -85 53
-73 51 -337 51 -246 0 -248 0 -269 -23z m527 -48 c30 -11 51 -35 51 -58 0 -20
-20 -11 -47 20 -16 17 -37 35 -48 40 -31 12 6 11 44 -2z m-356 -487 c111 -115
102 -145 -41 -140 l-77 3 -3 95 c-4 117 2 144 26 131 9 -5 52 -45 95 -89z"/>
</g>
</svg>